<svg xmlns="http://www.w3.org/2000/svg" viewBox="0 0 2000 1350" width="100%" height="100%" style="background:#090d16; font-family: -apple-system, BlinkMacSystemFont, 'Segoe UI', Roboto, Helvetica, Arial, sans-serif;">
  <defs>
    <!-- Background Gradients -->
    <linearGradient id="bgGlow" x1="0%" y1="0%" x2="100%" y2="100%">
      <stop offset="0%" stop-color="#0b1120"/>
      <stop offset="50%" stop-color="#090d16"/>
      <stop offset="100%" stop-color="#030712"/>
    </linearGradient>

    <!-- Zone Gradients -->
    <linearGradient id="untrustedLayerBg" x1="0%" y1="0%" x2="100%" y2="100%">
      <stop offset="0%" stop-color="#1e1b4b" stop-opacity="0.6"/>
      <stop offset="100%" stop-color="#0f172a" stop-opacity="0.8"/>
    </linearGradient>
    <linearGradient id="governanceLayerBg" x1="0%" y1="0%" x2="100%" y2="100%">
      <stop offset="0%" stop-color="#14532d" stop-opacity="0.3"/>
      <stop offset="100%" stop-color="#0f172a" stop-opacity="0.8"/>
    </linearGradient>
    <linearGradient id="executionLayerBg" x1="0%" y1="0%" x2="100%" y2="100%">
      <stop offset="0%" stop-color="#0c4a6e" stop-opacity="0.4"/>
      <stop offset="100%" stop-color="#0f172a" stop-opacity="0.8"/>
    </linearGradient>
    <linearGradient id="cardGrad" x1="0%" y1="0%" x2="0%" y2="100%">
      <stop offset="0%" stop-color="#1e293b"/>
      <stop offset="100%" stop-color="#0f172a"/>
    </linearGradient>

    <!-- Arrow Markers -->
    <marker id="arrowCyan" viewBox="0 0 10 10" refX="9" refY="5" markerWidth="6" markerHeight="6" orient="auto">
      <path d="M 0 1 L 10 5 L 0 9 z" fill="#38bdf8"/>
    </marker>
    <marker id="arrowPurple" viewBox="0 0 10 10" refX="9" refY="5" markerWidth="6" markerHeight="6" orient="auto">
      <path d="M 0 1 L 10 5 L 0 9 z" fill="#c084fc"/>
    </marker>
    <marker id="arrowGreen" viewBox="0 0 10 10" refX="9" refY="5" markerWidth="6" markerHeight="6" orient="auto">
      <path d="M 0 1 L 10 5 L 0 9 z" fill="#34d399"/>
    </marker>
    <marker id="arrowAmber" viewBox="0 0 10 10" refX="9" refY="5" markerWidth="6" markerHeight="6" orient="auto">
      <path d="M 0 1 L 10 5 L 0 9 z" fill="#fbbf24"/>
    </marker>
    <marker id="arrowRose" viewBox="0 0 10 10" refX="9" refY="5" markerWidth="6" markerHeight="6" orient="auto">
      <path d="M 0 1 L 10 5 L 0 9 z" fill="#f87171"/>
    </marker>

    <!-- Drop Shadows -->
    <filter id="shadow" x="-10%" y="-10%" width="120%" height="120%">
      <feDropShadow dx="0" dy="8" stdDeviation="6" flood-color="#000000" flood-opacity="0.6"/>
    </filter>
    <filter id="glowCyan" x="-20%" y="-20%" width="140%" height="140%">
      <feDropShadow dx="0" dy="0" stdDeviation="8" flood-color="#38bdf8" flood-opacity="0.4"/>
    </filter>
    <filter id="glowPurple" x="-20%" y="-20%" width="140%" height="140%">
      <feDropShadow dx="0" dy="0" stdDeviation="8" flood-color="#c084fc" flood-opacity="0.4"/>
    </filter>
  </defs>

  <!-- Background Base -->
  <rect width="2000" height="1350" fill="url(#bgGlow)"/>

  <!-- Grid Pattern Overlay -->
  <pattern id="grid" width="40" height="40" patternUnits="userSpaceOnUse">
    <path d="M 40 0 L 0 0 0 40" fill="none" stroke="#1e293b" stroke-width="0.5" stroke-opacity="0.3"/>
  </pattern>
  <rect width="2000" height="1350" fill="url(#grid)"/>

  <!-- HEADER & INVARIANT BANNER -->
  <g transform="translate(60, 40)">
    <text x="0" y="32" font-size="28" font-weight="900" fill="#f8fafc" letter-spacing="-0.5">ApprovalLoop — Governed Autonomous Agent Architecture</text>
    
    <g transform="translate(0, 48)">
      <rect width="860" height="34" rx="8" fill="#1e1b4b" stroke="#6366f1" stroke-width="1.5" filter="url(#shadow)"/>
      <circle cx="20" cy="17" r="5" fill="#38bdf8"/>
      <text x="36" y="22" font-size="14" font-weight="800" fill="#a5b4fc" letter-spacing="0.5">CORE INVARIANT: <tspan fill="#38bdf8">AI proposes.</tspan> <tspan fill="#34d399">Deterministic policy decides.</tspan> <tspan fill="#fbbf24">Infrastructure executes.</tspan></text>
    </g>

    <g transform="translate(1320, 10)">
      <rect x="0" y="0" width="160" height="30" rx="6" fill="#1e293b" stroke="#334155"/>
      <text x="80" y="19" font-size="11" font-weight="700" fill="#38bdf8" text-anchor="middle">Google Cloud Run</text>

      <rect x="170" y="0" width="160" height="30" rx="6" fill="#1e293b" stroke="#334155"/>
      <text x="250" y="19" font-size="11" font-weight="700" fill="#c084fc" text-anchor="middle">Gemini 3.7 Flash</text>

      <rect x="340" y="0" width="180" height="30" rx="6" fill="#1e293b" stroke="#334155"/>
      <text x="430" y="19" font-size="11" font-weight="700" fill="#34d399" text-anchor="middle">Cloud Firestore (State)</text>
    </g>
  </g>

  <!-- 3 HIGH-LEVEL SECURITY BOUNDARY CONTAINERS -->
  <g transform="translate(50, 150)">
    <rect width="600" height="880" rx="16" fill="url(#untrustedLayerBg)" stroke="#8b5cf6" stroke-width="1.5" stroke-dasharray="6,4"/>
    <rect x="20" y="16" width="310" height="26" rx="6" fill="#4c1d95" stroke="#a78bfa" stroke-width="1"/>
    <text x="32" y="34" font-size="12" font-weight="800" fill="#ede9fe">1. AI / UNTRUSTED PROPOSAL LAYER</text>
    <text x="580" y="34" font-size="10.5" font-weight="600" fill="#c4b5fd" text-anchor="end">Zero Direct Tool / DB Authority</text>
  </g>

  <g transform="translate(680, 150)">
    <rect width="660" height="880" rx="16" fill="url(#governanceLayerBg)" stroke="#10b981" stroke-width="2"/>
    <rect x="20" y="16" width="340" height="26" rx="6" fill="#064e3b" stroke="#34d399" stroke-width="1"/>
    <text x="32" y="34" font-size="12" font-weight="800" fill="#d1fae5">2. GOVERNANCE &amp; ENFORCEMENT LAYER</text>
    <text x="640" y="34" font-size="10.5" font-weight="700" fill="#6ee7b7" text-anchor="end">Deterministic Mathematical Gates</text>
  </g>

  <g transform="translate(1370, 150)">
    <rect width="580" height="880" rx="16" fill="url(#executionLayerBg)" stroke="#0284c7" stroke-width="1.5" stroke-dasharray="6,4"/>
    <rect x="20" y="16" width="320" height="26" rx="6" fill="#0c4a6e" stroke="#38bdf8" stroke-width="1"/>
    <text x="32" y="34" font-size="12" font-weight="800" fill="#e0f2fe">3. TRUSTED EXECUTION LAYER</text>
    <text x="560" y="34" font-size="10.5" font-weight="600" fill="#7dd3fc" text-anchor="end">Leased Runtime &amp; Side-Effects</text>
  </g>

  <!-- ACTORS & EVENTS -->
  <g transform="translate(80, 210)" filter="url(#shadow)">
    <rect width="240" height="150" rx="12" fill="url(#cardGrad)" stroke="#334155" stroke-width="1.5"/>
    <path d="M 0 0 L 240 0 L 240 32 L 0 32 Z" fill="#1e293b" clip-path="inset(0 0 0 0 round 12px 12px 0 0)"/>
    <text x="14" y="21" font-size="12" font-weight="800" fill="#f8fafc">Business Triggers &amp; Events</text>
    
    <g transform="translate(14, 46)">
      <circle cx="6" cy="10" r="3" fill="#38bdf8"/>
      <text x="18" y="14" font-size="11" fill="#cbd5e1">Cloud Scheduler (1-min tick)</text>
      
      <circle cx="6" cy="34" r="3" fill="#38bdf8"/>
      <text x="18" y="38" font-size="11" fill="#cbd5e1">Stale Expense / Dispute Event</text>

      <circle cx="6" cy="58" r="3" fill="#38bdf8"/>
      <text x="18" y="62" font-size="11" fill="#cbd5e1">Operator API / Web Ingress</text>

      <circle cx="6" cy="82" r="3" fill="#38bdf8"/>
      <text x="18" y="86" font-size="11" fill="#cbd5e1">Persistent State Context Read</text>
    </g>
  </g>

  <!-- GEMINI AGENT FLEET -->
  <g transform="translate(360, 210)" filter="url(#shadow)">
    <rect width="260" height="240" rx="12" fill="url(#cardGrad)" stroke="#8b5cf6" stroke-width="1.5"/>
    <path d="M 0 0 L 260 0 L 260 32 L 0 32 Z" fill="#4c1d95" clip-path="inset(0 0 0 0 round 12px 12px 0 0)"/>
    <text x="14" y="21" font-size="12" font-weight="800" fill="#ede9fe">Gemini Agent Fleet</text>
    
    <g transform="translate(12, 46)">
      <rect x="0" y="0" width="236" height="52" rx="6" fill="#1e1b4b" stroke="#6366f1" stroke-width="1"/>
      <text x="10" y="20" font-size="11" font-weight="700" fill="#c7d2fe">FinanceAgent (v1.2.0)</text>
      <text x="10" y="38" font-size="9.5" fill="#94a3b8">Refunds, Invoices, Stalled Expenses</text>

      <rect x="0" y="60" width="236" height="52" rx="6" fill="#1e1b4b" stroke="#6366f1" stroke-width="1"/>
      <text x="10" y="20" font-size="11" font-weight="700" fill="#c7d2fe">SupportAgent (v1.1.0)</text>
      <text x="10" y="38" font-size="9.5" fill="#94a3b8">SLA Credits, Ticket Escalations</text>

      <rect x="0" y="120" width="236" height="52" rx="6" fill="#1e1b4b" stroke="#6366f1" stroke-width="1"/>
      <text x="10" y="20" font-size="11" font-weight="700" fill="#c7d2fe">SalesAgent (v1.0.0)</text>
      <text x="10" y="38" font-size="9.5" fill="#94a3b8">Custom Terms, Commercial Discounts</text>
    </g>
  </g>

  <!-- MODEL ARMOR PRE-LLM -->
  <g transform="translate(140, 480)" filter="url(#shadow)">
    <rect width="480" height="90" rx="10" fill="#0f172a" stroke="#f59e0b" stroke-width="1.5"/>
    <rect x="0" y="0" width="480" height="24" rx="10" fill="#451a03" clip-path="inset(0 0 0 0 round 10px 10px 0 0)"/>
    <text x="12" y="16" font-size="11" font-weight="800" fill="#fef3c7">GOOGLE CLOUD MODEL ARMOR — PRE-LLM INSPECTION (SanitizeUserPrompt)</text>
    <g transform="translate(12, 38)">
      <text x="0" y="14" font-size="10.5" fill="#fde68a">• Prompt Injection Defense (&quot;ignore prior instructions&quot;, DAN mode, system bypass)</text>
      <text x="0" y="32" font-size="10.5" fill="#fde68a">• Malicious Command Scanner (eval, drop table, rm -rf, bash scripts)</text>
    </g>
  </g>

  <!-- GEMINI 3.7 FLASH REASONING ENGINE -->
  <g transform="translate(140, 600)" filter="url(#shadow)">
    <rect width="480" height="150" rx="12" fill="url(#cardGrad)" stroke="#c084fc" stroke-width="2" filter="url(#glowPurple)"/>
    <path d="M 0 0 L 480 0 L 480 32 L 0 32 Z" fill="#581c87" clip-path="inset(0 0 0 0 round 12px 12px 0 0)"/>
    <text x="14" y="21" font-size="13" font-weight="800" fill="#faf5ff">Google GenAI SDK — Gemini 3.7 Flash (`google-genai`)</text>
    
    <g transform="translate(14, 46)">
      <text x="0" y="16" font-size="11.5" font-weight="700" fill="#e9d5ff">Cognitive Reasoning &amp; Context Evaluation:</text>
      <text x="12" y="36" font-size="10.5" fill="#cbd5e1">1. Evaluates situational context, stale duration, customer SLA status</text>
      <text x="12" y="54" font-size="10.5" fill="#cbd5e1">2. Formulates structured justification and risk tier classification</text>
      <text x="12" y="72" font-size="10.5" fill="#cbd5e1">3. Drafts professional tone contextual notification language</text>
      <rect x="0" y="82" width="452" height="24" rx="4" fill="#3b0764" stroke="#d8b4fe" stroke-width="0.8"/>
      <text x="226" y="98" font-size="10" font-weight="800" fill="#f5d0fe" text-anchor="middle">UNTRUSTED OUTPUT — NO DIRECT SIDE-EFFECT CAPABILITY</text>
    </g>
  </g>

  <!-- MODEL ARMOR POST-LLM -->
  <g transform="translate(140, 780)" filter="url(#shadow)">
    <rect width="480" height="90" rx="10" fill="#0f172a" stroke="#f59e0b" stroke-width="1.5"/>
    <rect x="0" y="0" width="480" height="24" rx="10" fill="#451a03" clip-path="inset(0 0 0 0 round 10px 10px 0 0)"/>
    <text x="12" y="16" font-size="11" font-weight="800" fill="#fef3c7">GOOGLE CLOUD MODEL ARMOR — POST-LLM INSPECTION (SanitizeModelResponse)</text>
    <g transform="translate(12, 38)">
      <text x="0" y="14" font-size="10.5" fill="#fde68a">• Credential &amp; API Key Leakage Filter (Google API keys, AWS tokens, JWTs)</text>
      <text x="0" y="32" font-size="10.5" fill="#fde68a">• Cross-Site Scripting &amp; Payload Sanitization (&lt;script&gt;, javascript: handlers)</text>
    </g>
  </g>

  <!-- TYPED PROPOSAL ENVELOPE -->
  <g transform="translate(140, 890)" filter="url(#shadow)">
    <rect width="480" height="110" rx="10" fill="#1e1b4b" stroke="#818cf8" stroke-width="1.5"/>
    <path d="M 0 0 L 480 0 L 480 26 L 0 26 Z" fill="#312e81" clip-path="inset(0 0 0 0 round 10px 10px 0 0)"/>
    <text x="12" y="18" font-size="11.5" font-weight="800" fill="#e0e7ff">Typed Proposal Envelope: `AgentActionProposal` + `AgentAuthContext`</text>
    <g transform="translate(14, 38)">
      <text x="0" y="14" font-size="10.5" font-family="monospace" fill="#a5b4fc">proposal_id | agent_id: "finance-agent" | action_name: "issue_refund"</text>
      <text x="0" y="32" font-size="10.5" font-family="monospace" fill="#a5b4fc">amount: Decimal("20000.00") | currency: "INR" | recipient: "user@corp.com"</text>
      <text x="0" y="50" font-size="10.5" font-family="monospace" fill="#a5b4fc">hmac_signature: "a8f9c2..." | request_id: "req_3910f" (Replay Protected)</text>
    </g>
  </g>

  <!-- AGENT GATEWAY & ZERO-TRUST AUTH -->
  <g transform="translate(710, 210)" filter="url(#shadow)">
    <rect width="600" height="190" rx="12" fill="url(#cardGrad)" stroke="#38bdf8" stroke-width="2" filter="url(#glowCyan)"/>
    <path d="M 0 0 L 600 0 L 600 32 L 0 32 Z" fill="#0369a1" clip-path="inset(0 0 0 0 round 12px 12px 0 0)"/>
    <text x="14" y="21" font-size="13" font-weight="800" fill="#f0f9ff">ApprovalLoop Gateway &amp; Zero-Trust Auth Provider</text>
    
    <g transform="translate(14, 44)">
      <rect x="0" y="0" width="276" height="58" rx="6" fill="#082f49" stroke="#0ea5e9" stroke-width="1"/>
      <text x="10" y="18" font-size="11" font-weight="700" fill="#bae6fd">1. Cryptographic Identity</text>
      <text x="10" y="34" font-size="9.5" fill="#7dd3fc">• HMAC-SHA256 Secret Verification</text>
      <text x="10" y="48" font-size="9.5" fill="#7dd3fc">• Google Cloud IAM OIDC Token Hook</text>

      <rect x="294" y="0" width="276" height="58" rx="6" fill="#082f49" stroke="#0ea5e9" stroke-width="1"/>
      <text x="10" y="18" font-size="11" font-weight="700" fill="#bae6fd">2. Distributed Replay Guard</text>
      <text x="10" y="34" font-size="9.5" fill="#7dd3fc">• Request ID Deduplication Cache</text>
      <text x="10" y="48" font-size="9.5" fill="#7dd3fc">• Timestamp Drift Window (±300s)</text>

      <rect x="0" y="68" width="276" height="58" rx="6" fill="#082f49" stroke="#0ea5e9" stroke-width="1"/>
      <text x="10" y="18" font-size="11" font-weight="700" fill="#bae6fd">3. Agent Registry Check</text>
      <text x="10" y="34" font-size="9.5" fill="#7dd3fc">• Agent Status == ACTIVE</text>
      <text x="10" y="48" font-size="9.5" fill="#7dd3fc">• Action in allowed_actions Whitelist</text>

      <rect x="294" y="68" width="276" height="58" rx="6" fill="#082f49" stroke="#0ea5e9" stroke-width="1"/>
      <text x="10" y="18" font-size="11" font-weight="700" fill="#bae6fd">4. 4-Point Safety Validator</text>
      <text x="10" y="34" font-size="9.5" fill="#7dd3fc">• Exact Decimal Financial Precision</text>
      <text x="10" y="48" font-size="9.5" fill="#7dd3fc">• Recipient &amp; ID Mathematical Match</text>
    </g>
  </g>

  <!-- DETERMINISTIC POLICY ENGINE -->
  <g transform="translate(710, 430)" filter="url(#shadow)">
    <rect width="600" height="210" rx="12" fill="url(#cardGrad)" stroke="#10b981" stroke-width="2"/>
    <path d="M 0 0 L 600 0 L 600 32 L 0 32 Z" fill="#065f46" clip-path="inset(0 0 0 0 round 12px 12px 0 0)"/>
    <text x="14" y="21" font-size="13" font-weight="800" fill="#ecfdf5">Deterministic Policy Engine (Versioned Profiles: `finance-v3`)</text>
    
    <g transform="translate(14, 46)">
      <!-- Tier A: ALLOW -->
      <rect x="0" y="0" width="180" height="140" rx="8" fill="#064e3b" stroke="#34d399" stroke-width="1.5"/>
      <rect x="8" y="8" width="70" height="20" rx="4" fill="#059669"/>
      <text x="43" y="22" font-size="10.5" font-weight="800" fill="#ffffff" text-anchor="middle">ALLOW</text>
      <text x="10" y="48" font-size="11" font-weight="700" fill="#a7f3d0">Low Risk Tier</text>
      <text x="10" y="66" font-size="10" fill="#d1fae5">• Amount &lt; ₹5,000</text>
      <text x="10" y="82" font-size="10" fill="#d1fae5">• Standard approvals</text>
      <text x="10" y="104" font-size="9.5" font-weight="700" fill="#6ee7b7">→ Immediate Execution</text>
      <text x="10" y="122" font-size="9" fill="#a7f3d0">Autonomous pathway</text>

      <!-- Tier B: REQUIRE_HUMAN_APPROVAL -->
      <rect x="194" y="0" width="184" height="140" rx="8" fill="#451a03" stroke="#fbbf24" stroke-width="1.5"/>
      <rect x="202" y="8" width="150" height="20" rx="4" fill="#d97706"/>
      <text x="277" y="22" font-size="10" font-weight="800" fill="#ffffff" text-anchor="middle">HUMAN APPROVAL</text>
      <text x="204" y="48" font-size="11" font-weight="700" fill="#fde68a">Medium Risk Tier</text>
      <text x="204" y="66" font-size="10" fill="#fef3c7">• ₹5,000 – ₹25,000</text>
      <text x="204" y="82" font-size="10" fill="#fef3c7">• Non-standard terms</text>
      <text x="204" y="104" font-size="9.5" font-weight="700" fill="#fcd34d">→ Pause in Memory</text>
      <text x="204" y="122" font-size="9" fill="#fde68a">Queued for Operator</text>

      <!-- Tier C: DENY -->
      <rect x="392" y="0" width="180" height="140" rx="8" fill="#4c0519" stroke="#f87171" stroke-width="1.5"/>
      <rect x="400" y="8" width="60" height="20" rx="4" fill="#dc2626"/>
      <text x="430" y="22" font-size="10.5" font-weight="800" fill="#ffffff" text-anchor="middle">DENY</text>
      <text x="402" y="48" font-size="11" font-weight="700" fill="#fecaca">Prohibited / High</text>
      <text x="402" y="66" font-size="10" fill="#fee2e2">• Amount &gt; ₹25,000</text>
      <text x="402" y="82" font-size="10" fill="#fee2e2">• Unknown Profiles</text>
      <text x="402" y="104" font-size="9.5" font-weight="700" fill="#fca5a5">→ Block Execution</text>
      <text x="402" y="122" font-size="9" fill="#fecaca">Logged to Audit Trail</text>
    </g>
  </g>

  <!-- HUMAN OVERSIGHT APPROVAL QUEUE -->
  <g transform="translate(710, 670)" filter="url(#shadow)">
    <rect width="600" height="170" rx="12" fill="url(#cardGrad)" stroke="#fbbf24" stroke-width="1.5"/>
    <path d="M 0 0 L 600 0 L 600 32 L 0 32 Z" fill="#78350f" clip-path="inset(0 0 0 0 round 12px 12px 0 0)"/>
    <text x="14" y="21" font-size="13" font-weight="800" fill="#fef3c7">Human Oversight: Approval Queue &amp; Operator Decision</text>
    
    <g transform="translate(14, 44)">
      <rect x="0" y="0" width="280" height="106" rx="6" fill="#1e293b" stroke="#334155"/>
      <text x="10" y="20" font-size="11.5" font-weight="700" fill="#f8fafc">Pending Decision Inbox (`/api/approvals`)</text>
      <text x="10" y="40" font-size="10" fill="#cbd5e1">• Displays Gemini proposal &amp; reasoning draft</text>
      <text x="10" y="58" font-size="10" fill="#cbd5e1">• Shows full 4-point safety validation metrics</text>
      <text x="10" y="76" font-size="10" fill="#cbd5e1">• Cross-session context preserved in Memory Bank</text>
      <text x="10" y="94" font-size="10" fill="#cbd5e1">• Atomic single-claim prevents double sign-off</text>

      <g transform="translate(296, 0)">
        <rect x="0" y="0" width="276" height="48" rx="6" fill="#064e3b" stroke="#10b981" stroke-width="1"/>
        <text x="10" y="20" font-size="11" font-weight="800" fill="#34d399">APPROVE ACTION</text>
        <text x="10" y="36" font-size="9.5" fill="#a7f3d0">Resumes async workflow → dispatches to Worker</text>

        <rect x="0" y="58" width="276" height="48" rx="6" fill="#4c0519" stroke="#ef4444" stroke-width="1"/>
        <text x="10" y="20" font-size="11" font-weight="800" fill="#f87171">REJECT ACTION</text>
        <text x="10" y="36" font-size="9.5" fill="#fca5a5">Permanently halts workflow → commits to Audit</text>
      </g>
    </g>
  </g>

  <!-- DETERMINISTIC STATE MACHINE -->
  <g transform="translate(710, 865)" filter="url(#shadow)">
    <rect width="600" height="135" rx="10" fill="#0f172a" stroke="#6366f1" stroke-width="1.5"/>
    <path d="M 0 0 L 600 0 L 600 26 L 0 26 Z" fill="#312e81" clip-path="inset(0 0 0 0 round 10px 10px 0 0)"/>
    <text x="12" y="18" font-size="11.5" font-weight="800" fill="#e0e7ff">Deterministic State Machine &amp; Atomic State Commit</text>
    <g transform="translate(14, 38)">
      <text x="0" y="16" font-size="11" font-family="monospace" fill="#c7d2fe">PENDING → CLAIMED → NUDGED → ESCALATED → APPROVED / DENIED</text>
      <text x="0" y="36" font-size="10.5" fill="#94a3b8">• Guaranteed Invariant: Resolved states (APPROVED / REJECTED) are permanently inert</text>
      <text x="0" y="54" font-size="10.5" fill="#94a3b8">• Scenario 13 Guard: Human direct sign-off immediately preempts background agent</text>
      <text x="0" y="72" font-size="10.5" fill="#94a3b8">• Single-source-of-truth state transitions committed via atomic Firestore transactions</text>
    </g>
  </g>

  <!-- DURABLE ASYNC RUNTIME -->
  <g transform="translate(1400, 210)" filter="url(#shadow)">
    <rect width="520" height="230" rx="12" fill="url(#cardGrad)" stroke="#38bdf8" stroke-width="2"/>
    <path d="M 0 0 L 520 0 L 520 32 L 0 32 Z" fill="#0284c7" clip-path="inset(0 0 0 0 round 12px 12px 0 0)"/>
    <text x="14" y="21" font-size="13" font-weight="800" fill="#f0f9ff">Durable Async Runtime &amp; Leased Worker Pool</text>
    
    <g transform="translate(14, 46)">
      <rect x="0" y="0" width="240" height="70" rx="6" fill="#082f49" stroke="#0ea5e9" stroke-width="1"/>
      <text x="10" y="18" font-size="11" font-weight="700" fill="#bae6fd">Task Leasing &amp; Crash Recovery</text>
      <text x="10" y="36" font-size="9.5" fill="#7dd3fc">• Leases: 300s processing lock</text>
      <text x="10" y="50" font-size="9.5" fill="#7dd3fc">• Expired lease auto-recovery</text>
      <text x="10" y="64" font-size="9.5" fill="#7dd3fc">• Worker restart persistence</text>

      <rect x="252" y="0" width="240" height="70" rx="6" fill="#082f49" stroke="#0ea5e9" stroke-width="1"/>
      <text x="10" y="18" font-size="11" font-weight="700" fill="#bae6fd">Idempotency &amp; Backoff</text>
      <text x="10" y="36" font-size="9.5" fill="#7dd3fc">• Unique deterministic task keys</text>
      <text x="10" y="50" font-size="9.5" fill="#7dd3fc">• Exponential retry backoff (x2)</text>
      <text x="10" y="64" font-size="9.5" fill="#7dd3fc">• Dead letter capture after max retries</text>

      <rect x="0" y="80" width="492" height="54" rx="6" fill="#082f49" stroke="#0ea5e9" stroke-width="1"/>
      <text x="10" y="18" font-size="11" font-weight="700" fill="#bae6fd">Firestore Transactional Outbox Pattern</text>
      <text x="10" y="34" font-size="9.5" fill="#7dd3fc">• Atomically stages side-effect events before network calls</text>
      <text x="10" y="48" font-size="9.5" fill="#7dd3fc">• Prevents ghost executions and dual-write divergence across failures</text>
    </g>
  </g>

  <!-- EXTERNAL BUSINESS SYSTEMS & TOOLS -->
  <g transform="translate(1400, 465)" filter="url(#shadow)">
    <rect width="520" height="210" rx="12" fill="url(#cardGrad)" stroke="#38bdf8" stroke-width="1.5"/>
    <path d="M 0 0 L 520 0 L 520 32 L 0 32 Z" fill="#0f172a" stroke-bottom="#334155" clip-path="inset(0 0 0 0 round 12px 12px 0 0)"/>
    <text x="14" y="21" font-size="13" font-weight="800" fill="#f8fafc">External Business Systems &amp; Tool Adapters</text>
    
    <g transform="translate(14, 46)">
      <rect x="0" y="0" width="240" height="66" rx="6" fill="#1e293b" stroke="#334155"/>
      <text x="10" y="18" font-size="11" font-weight="700" fill="#38bdf8">Payment &amp; Refund Gateway</text>
      <text x="10" y="36" font-size="9.5" fill="#cbd5e1">• Executes authorized ₹ refunds</text>
      <text x="10" y="52" font-size="9.5" fill="#94a3b8">Strictly gated by ALLOW / Human Sign-off</text>

      <rect x="252" y="0" width="240" height="66" rx="6" fill="#1e293b" stroke="#334155"/>
      <text x="10" y="18" font-size="11" font-weight="700" fill="#38bdf8">ERP &amp; General Ledger Sync</text>
      <text x="10" y="36" font-size="9.5" fill="#cbd5e1">• Updates SAP / Oracle accounting</text>
      <text x="10" y="52" font-size="9.5" fill="#94a3b8">Immutable journal entry mutation</text>

      <rect x="0" y="76" width="240" height="66" rx="6" fill="#1e293b" stroke="#334155"/>
      <text x="10" y="18" font-size="11" font-weight="700" fill="#38bdf8">Slack Webhook Adapter</text>
      <text x="10" y="36" font-size="9.5" fill="#cbd5e1">• Contextual nudges &amp; escalations</text>
      <text x="10" y="52" font-size="9.5" fill="#94a3b8">Interactive approval action buttons</text>

      <rect x="252" y="76" width="240" height="66" rx="6" fill="#1e293b" stroke="#334155"/>
      <text x="10" y="18" font-size="11" font-weight="700" fill="#38bdf8">SMTP Email Adapter</text>
      <text x="10" y="36" font-size="9.5" fill="#cbd5e1">• Formal corporate sign-off emails</text>
      <text x="10" y="52" font-size="9.5" fill="#94a3b8">Cryptographically verified headers</text>
    </g>
  </g>

  <!-- REACT 18 FRONTEND DASHBOARD -->
  <g transform="translate(1400, 700)" filter="url(#shadow)">
    <rect width="520" height="150" rx="10" fill="#0f172a" stroke="#818cf8" stroke-width="1.5"/>
    <path d="M 0 0 L 520 0 L 520 26 L 0 26 Z" fill="#312e81" clip-path="inset(0 0 0 0 round 10px 10px 0 0)"/>
    <text x="12" y="18" font-size="11.5" font-weight="800" fill="#e0e7ff">React 18 Control Plane Dashboard (Vite + Tailwind + TypeScript)</text>
    <g transform="translate(14, 38)">
      <text x="0" y="14" font-size="10.5" fill="#cbd5e1">• Real-time Action Ledger &amp; Live Proof-of-Autonomy Metrics</text>
      <text x="0" y="32" font-size="10.5" fill="#cbd5e1">• Human Approval Queue with 1-Click Sign-Off / Reject buttons</text>
      <text x="0" y="50" font-size="10.5" fill="#cbd5e1">• Agent Fleet Capability Inspector &amp; Agent Registry Live Viewer</text>
      <text x="0" y="68" font-size="10.5" fill="#cbd5e1">• Interactive 3-Tier Scenario Runner (Case A, Case B, Case C)</text>
      <text x="0" y="86" font-size="10.5" fill="#cbd5e1">• Memory Bank Viewer with session inspection &amp; audit history</text>
    </g>
  </g>

  <!-- BLOCKED ACTION SINK -->
  <g transform="translate(1400, 875)" filter="url(#shadow)">
    <rect width="520" height="125" rx="10" fill="#4c0519" stroke="#ef4444" stroke-width="1.5"/>
    <path d="M 0 0 L 520 0 L 520 26 L 0 26 Z" fill="#991b1b" clip-path="inset(0 0 0 0 round 10px 10px 0 0)"/>
    <text x="12" y="18" font-size="11.5" font-weight="800" fill="#fee2e2">Blocked Action Sink &amp; Security Rejection Handler</text>
    <g transform="translate(14, 38)">
      <text x="0" y="16" font-size="11" font-weight="700" fill="#fca5a5">STOPS EXECUTION IMMEDIATELY:</text>
      <text x="0" y="36" font-size="10.5" fill="#fecaca">• Denied actions (Amount &gt; ₹25,000 or unauthorized tool request)</text>
      <text x="0" y="54" font-size="10.5" fill="#fecaca">• Model Armor prompt/response violations or replay attacks</text>
      <text x="0" y="72" font-size="10.5" fill="#fecaca">• Emits audit record → 0 side effects dispatched</text>
    </g>
  </g>

  <!-- STATE, MEMORY & AUDIT LEDGER (PERSISTENCE LAYER) -->
  <g transform="translate(50, 1050)" filter="url(#shadow)">
    <rect width="1900" height="180" rx="14" fill="#0b1329" stroke="#3b82f6" stroke-width="2"/>
    <path d="M 0 0 L 1900 0 L 1900 32 L 0 32 Z" fill="#1e3a8a" clip-path="inset(0 0 0 0 round 14px 14px 0 0)"/>
    <text x="20" y="22" font-size="13" font-weight="800" fill="#eff6ff">6. STATE, MEMORY &amp; AUDIT LEDGER (Google Cloud Firestore + OpenTelemetry)</text>
    
    <g transform="translate(20, 46)">
      <rect x="0" y="0" width="440" height="110" rx="8" fill="#1e293b" stroke="#334155"/>
      <text x="14" y="22" font-size="12" font-weight="700" fill="#38bdf8">Persistent Memory Bank</text>
      <text x="14" y="42" font-size="10.5" fill="#cbd5e1">• Cross-session workflow memories</text>
      <text x="14" y="60" font-size="10.5" fill="#cbd5e1">• Action history &amp; previous decisions</text>
      <text x="14" y="78" font-size="10.5" fill="#cbd5e1">• Preserves state across container reboots</text>
      <text x="14" y="96" font-size="10" font-family="monospace" fill="#94a3b8">Collection: `workflow_memories`</text>

      <rect x="465" y="0" width="440" height="110" rx="8" fill="#1e293b" stroke="#334155"/>
      <text x="14" y="22" font-size="12" font-weight="700" fill="#38bdf8">Agent Identity &amp; Capability Registry</text>
      <text x="14" y="42" font-size="10.5" fill="#cbd5e1">• Registered agents, versions, capabilities</text>
      <text x="14" y="60" font-size="10.5" fill="#cbd5e1">• Allowed actions &amp; assigned policy profiles</text>
      <text x="14" y="78" font-size="10.5" fill="#cbd5e1">• HMAC secret keys &amp; risk classifications</text>
      <text x="14" y="96" font-size="10" font-family="monospace" fill="#94a3b8">Collection: `agent_registry`</text>

      <rect x="930" y="0" width="450" height="110" rx="8" fill="#1e293b" stroke="#334155"/>
      <text x="14" y="22" font-size="12" font-weight="700" fill="#38bdf8">OpenTelemetry Distributed Traces</text>
      <text x="14" y="42" font-size="10.5" fill="#cbd5e1">• Correlated spans across entire lifecycle</text>
      <text x="14" y="60" font-size="10.5" fill="#cbd5e1">• `trace_id`, `proposal_id`, `task_id` propagation</text>
      <text x="14" y="78" font-size="10.5" fill="#cbd5e1">• Automatic secret &amp; credential redaction</text>
      <text x="14" y="96" font-size="10" font-family="monospace" fill="#94a3b8">observe → draft → policy → execute</text>

      <rect x="1405" y="0" width="470" height="110" rx="8" fill="#1e293b" stroke="#334155"/>
      <text x="14" y="22" font-size="12" font-weight="700" fill="#38bdf8">AgBOM &amp; Immutable Audit Trail</text>
      <text x="14" y="42" font-size="10.5" fill="#cbd5e1">• Agent Bill of Materials (declared inventory)</text>
      <text x="14" y="60" font-size="10.5" fill="#cbd5e1">• Cryptographic audit records of all decisions</text>
      <text x="14" y="78" font-size="10.5" fill="#cbd5e1">• Full forensic causality ("Why did it act?")</text>
      <text x="14" y="96" font-size="10" font-family="monospace" fill="#94a3b8">Collection: `audit_ledger`, `async_tasks`</text>
    </g>
  </g>

  <!-- CONNECTING ARROWS -->
  <path d="M 320 280 L 360 280" stroke="#38bdf8" stroke-width="2" marker-end="url(#arrowCyan)"/>
  <path d="M 490 450 L 490 480" stroke="#c084fc" stroke-width="2" marker-end="url(#arrowPurple)"/>
  <path d="M 380 570 L 380 600" stroke="#c084fc" stroke-width="2" marker-end="url(#arrowPurple)"/>
  <path d="M 380 750 L 380 780" stroke="#c084fc" stroke-width="2" marker-end="url(#arrowPurple)"/>
  <path d="M 380 870 L 380 890" stroke="#c084fc" stroke-width="2" marker-end="url(#arrowPurple)"/>
  <path d="M 620 945 L 660 945 L 660 305 L 710 305" stroke="#38bdf8" stroke-width="2.5" marker-end="url(#arrowCyan)"/>
  <path d="M 1010 400 L 1010 430" stroke="#34d399" stroke-width="2.5" marker-end="url(#arrowGreen)"/>

  <path d="M 800 570 L 800 645 L 1360 645 L 1360 310 L 1400 310" stroke="#34d399" stroke-width="2.5" stroke-dasharray="6,3" marker-end="url(#arrowGreen)"/>
  <path d="M 890 570 L 890 670" stroke="#fbbf24" stroke-width="2.5" marker-end="url(#arrowAmber)"/>
  <path d="M 1150 710 L 1380 710 L 1380 340 L 1400 340" stroke="#34d399" stroke-width="2.5" marker-end="url(#arrowGreen)"/>

  <path d="M 1200 570 L 1200 620 L 1350 620 L 1350 930 L 1400 930" stroke="#f87171" stroke-width="2.5" marker-end="url(#arrowRose)"/>
  <path d="M 1150 760 L 1330 760 L 1330 950 L 1400 950" stroke="#f87171" stroke-width="2.5" marker-end="url(#arrowRose)"/>

  <path d="M 1660 440 L 1660 465" stroke="#38bdf8" stroke-width="2" marker-end="url(#arrowCyan)"/>
  <path d="M 1010 1000 L 1010 1050" stroke="#38bdf8" stroke-width="2" marker-end="url(#arrowCyan)"/>
  <path d="M 1660 675 L 1660 1050" stroke="#38bdf8" stroke-width="2" stroke-dasharray="4,4" marker-end="url(#arrowCyan)"/>

  <!-- EXAMPLE SCENARIO ANNOTATIONS -->
  <g transform="translate(50, 1245)">
    <g transform="translate(0, 0)">
      <rect width="610" height="50" rx="8" fill="#064e3b" stroke="#34d399" stroke-width="1"/>
      <text x="12" y="20" font-size="11" font-weight="800" fill="#a7f3d0">CASE A (LOW RISK): <tspan font-weight="500" fill="#ecfdf5">Finance Agent → ₹2,000 refund proposal</tspan></text>
      <text x="12" y="38" font-size="10.5" fill="#6ee7b7">Policy: &lt; ₹5,000 → <tspan font-weight="800">ALLOW</tspan> → Leased Worker dispatches refund → Audit Ledger logged</text>
    </g>

    <g transform="translate(640, 0)">
      <rect width="620" height="50" rx="8" fill="#451a03" stroke="#fbbf24" stroke-width="1"/>
      <text x="12" y="20" font-size="11" font-weight="800" fill="#fde68a">CASE B (MEDIUM RISK): <tspan font-weight="500" fill="#fffbeb">Finance Agent → ₹20,000 refund proposal</tspan></text>
      <text x="12" y="38" font-size="10.5" fill="#fcd34d">Policy: ₹5,000–₹25,000 → <tspan font-weight="800">HUMAN APPROVAL</tspan> → Pauses in Memory → Operator Approves → Executes</text>
    </g>

    <g transform="translate(1290, 0)">
      <rect width="610" height="50" rx="8" fill="#4c0519" stroke="#f87171" stroke-width="1"/>
      <text x="12" y="20" font-size="11" font-weight="800" fill="#fecaca">CASE C (HIGH RISK / DENIED): <tspan font-weight="500" fill="#fff1f2">Finance Agent → ₹100,000 refund proposal</tspan></text>
      <text x="12" y="38" font-size="10.5" fill="#fca5a5">Policy: &gt; ₹25,000 → <tspan font-weight="800">DENY</tspan> → Blocked deterministically → 0 Side effects dispatched → Logged</text>
    </g>
  </g>

  <!-- FOOTER -->
  <text x="50" y="1325" font-size="11" fill="#64748b">ApprovalLoop Governed Architecture • Google Cloud Run + Gemini 3.7 Flash (`google-genai`) + Google Cloud Model Armor + Firestore • Invariants 100% Verified</text>
  <text x="1950" y="1325" font-size="11" font-family="monospace" fill="#64748b" text-anchor="end">Deterministic Governance Boundary: Policy Engine v3 • Replay Protected HMAC/OIDC</text>
</svg>